# xmcd CD database file
#
# Track frame offsets:
#	150
#	13148
#	25878
#	37559
#	48259
#	72270
#	84348
#	94246
#	105551
#	115753
#	125860
#	137322
#	150201
#	163342
#
# Disc length: 2181 seconds
#
# Revision: 3
# Processed by: cddbd v1.5.2PL0 Copyright (c) Steve Scherf et al.
# Submitted via: CDex 1.70beta2
#
DISCID=a508830e
DTITLE=Rosie Flores - Rockabilly Filly
DYEAR=1995
DGENRE=Rockabilly
TTITLE0=Crazy Mixed Emotions
TTITLE1=Blues Keep Callin'
TTITLE2=His Rockin' Little Angel
TTITLE3=Wrong Side Of His Heart
TTITLE4=Boxcars
TTITLE5=Poor Girl's Town
TTITLE6=Hard Times
TTITLE7=Stranger
TTITLE8=Walking Dream
TTITLE9=You Tear Me Up
TTITLE10=Bop Street
TTITLE11=Rock Your Baby
TTITLE12=Don't Let Our Love Die
TTITLE13=(Uncredited)
EXTD=YEAR: 1995
EXTT0=
EXTT1=
EXTT2=
EXTT3=
EXTT4=
EXTT5=
EXTT6=
EXTT7=
EXTT8=
EXTT9=
EXTT10=
EXTT11=
EXTT12=
EXTT13=
PLAYORDER=
